<svg xmlns="http://www.w3.org/2000/svg" width="284" height="280" fill="none" viewBox="0 0 284 280"><path fill="url(#a)" d="M70.041.861c-23.214.5-23.614.5-29.217 3.302C33.82 7.565 26.916 14.97 21.413 24.976c-2.202 4.102-8.005 14.308-12.708 22.613C3.902 55.994 0 63.098 0 63.399c0 .3 53.031.4 117.869.3 135.379-.3 122.872.6 133.778-10.307 5.904-5.903 8.405-9.906 23.814-37.522 3.802-6.904 7.304-13.007 7.905-13.708.6-.7.5-1.4-.2-1.8-1.201-.701-174.002-.301-213.125.5"/><path fill="url(#b)" d="M119.169 77.006c-23.313 4.602-42.825 20.011-52.83 41.924-5.004 10.807-6.605 18.411-6.705 30.518-.2 18.211 2.102 24.514 20.112 56.033 2.201 3.802 7.204 12.607 11.107 19.511 7.204 12.808 29.417 51.33 31.118 54.032.8 1.301 1.1 1.301 2.301 0 2.702-2.902 25.615-43.526 27.716-49.329 2.902-8.105 2.802-16.81-.4-25.315-1.401-3.702-2.902-7.204-3.402-7.804-1.901-2.402-32.119-55.633-32.119-56.633 0-.701 12.308-1.001 37.522-1.001h37.522l6.604-2.602c10.306-4.202 14.008-8.705 28.917-34.92 7.204-12.607 13.108-23.514 13.308-24.214.3-1.1-10.206-1.301-58.034-1.2-32.119.1-60.335.5-62.737 1"/><defs><linearGradient id="a" x1="283.76" x2="-437.381" y1="31.868" y2="31.868" gradientUnits="userSpaceOnUse"><stop offset=".185" stop-color="#1b4fff"/><stop offset=".922" stop-color="#102f99"/></linearGradient><linearGradient id="b" x1="239.946" x2="-218.322" y1="177.991" y2="177.991" gradientUnits="userSpaceOnUse"><stop offset=".185" stop-color="#1b4fff"/><stop offset=".922" stop-color="#102f99"/></linearGradient></defs></svg>