<svg width="379" height="374" viewBox="0 0 379 374" fill="none" xmlns="http://www.w3.org/2000/svg">
<path d="M93.3333 1.14832C62.4 1.81498 61.8667 1.81498 54.4 5.54831C45.0667 10.0816 35.8667 19.9483 28.5333 33.2816C25.6 38.7483 17.8667 52.3483 11.6 63.415C5.2 74.615 0 84.0816 0 84.4816C0 84.8816 70.6667 85.015 157.067 84.8816C337.467 84.4816 320.8 85.6816 335.333 71.1483C343.2 63.2816 346.533 57.9483 367.067 21.1483C372.133 11.9483 376.8 3.81498 377.6 2.88165C378.4 1.94831 378.267 1.01498 377.333 0.481644C375.733 -0.451691 145.467 0.0816498 93.3333 1.14832Z" fill="url(#paint0_linear_213_1487)"/>
<path d="M158.8 102.615C127.733 108.749 101.733 129.282 88.3995 158.482C81.7329 172.882 79.5995 183.015 79.4662 199.149C79.1995 223.415 82.2662 231.815 106.266 273.815C109.2 278.882 115.866 290.615 121.066 299.815C130.666 316.882 160.266 368.215 162.533 371.815C163.6 373.549 164 373.549 165.6 371.815C169.2 367.949 199.733 313.815 202.533 306.082C206.4 295.282 206.266 283.682 202 272.349C200.133 267.415 198.133 262.749 197.466 261.949C194.933 258.749 154.666 187.815 154.666 186.482C154.666 185.549 171.066 185.149 204.666 185.149H254.666L263.466 181.682C277.2 176.082 282.133 170.082 302 135.149C311.6 118.349 319.466 103.815 319.733 102.882C320.133 101.415 306.133 101.149 242.4 101.282C199.6 101.415 162 101.949 158.8 102.615Z" fill="url(#paint1_linear_213_1487)"/>
<defs>
<linearGradient id="paint0_linear_213_1487" x1="378.125" y1="42.466" x2="-582.833" y2="42.466" gradientUnits="userSpaceOnUse">
<stop offset="0.184799" stop-color="#1B4FFF"/>
<stop offset="0.921794" stop-color="#102F99"/>
</linearGradient>
<linearGradient id="paint1_linear_213_1487" x1="319.741" y1="237.183" x2="-290.926" y2="237.183" gradientUnits="userSpaceOnUse">
<stop offset="0.184799" stop-color="#1B4FFF"/>
<stop offset="0.921794" stop-color="#102F99"/>
</linearGradient>
</defs>
</svg>
