<svg width="1056" height="374" viewBox="0 0 1056 374" fill="none" xmlns="http://www.w3.org/2000/svg">
<path d="M453.067 56.4814C435.867 60.8814 423.2 70.4814 415.6 84.8814C409.334 96.6148 406.667 108.481 405.467 127.815L404.667 143.148L391.734 142.615L378.667 142.215V161.681V181.148H392H405.334L405.6 252.748L406 324.481H430H454L454.4 252.748L454.667 181.148H477.334H500V161.681V142.348L493.734 142.481C490.134 142.615 480 142.615 471.067 142.615L454.667 142.481V129.948C454.667 111.948 458.534 102.748 468.267 97.6814C473.334 95.0148 486.267 95.4148 496.134 98.4814C500.8 99.8148 504.8 100.748 505.067 100.481C506 99.5481 513.067 64.4814 512.534 63.5481C512.134 63.0148 506.934 61.0148 500.934 59.0148C487.2 54.6148 464.934 53.4148 453.067 56.4814Z" fill="#333333"/>
<path d="M536.267 177.149C536.667 295.282 536.667 296.482 539.467 302.615C547.2 319.282 562.933 327.815 585.733 327.815C602.267 327.815 627.333 321.815 628.933 317.415C629.733 315.549 624.8 282.882 623.6 281.682C623.467 281.415 620.267 282.082 616.667 283.149C606.933 286.082 595.867 285.815 591.467 282.349C583.733 276.215 584 281.415 584 165.282V58.6154L560 58.2154L536 57.8154L536.267 177.149Z" fill="#333333"/>
<path d="M93.3333 1.14832C62.4 1.81498 61.8667 1.81498 54.4 5.54831C45.0667 10.0816 35.8667 19.9483 28.5333 33.2816C25.6 38.7483 17.8667 52.3483 11.6 63.415C5.2 74.615 0 84.0816 0 84.4816C0 84.8816 70.6667 85.015 157.067 84.8816C337.467 84.4816 320.8 85.6816 335.333 71.1483C343.2 63.2816 346.533 57.9483 367.067 21.1483C372.133 11.9483 376.8 3.81498 377.6 2.88165C378.4 1.94831 378.267 1.01498 377.333 0.481644C375.733 -0.45169 145.467 0.0816488 93.3333 1.14832Z" fill="url(#paint0_linear_194_1474)"/>
<path d="M158.8 102.615C127.733 108.749 101.733 129.282 88.3995 158.482C81.7329 172.882 79.5995 183.015 79.4662 199.149C79.1995 223.415 82.2662 231.815 106.266 273.815C109.2 278.882 115.866 290.615 121.066 299.815C130.666 316.882 160.266 368.215 162.533 371.815C163.6 373.549 164 373.549 165.6 371.815C169.2 367.949 199.733 313.815 202.533 306.082C206.4 295.282 206.266 283.682 202 272.349C200.133 267.415 198.133 262.749 197.466 261.949C194.933 258.749 154.666 187.815 154.666 186.482C154.666 185.549 171.066 185.149 204.666 185.149H254.666L263.466 181.682C277.2 176.082 282.133 170.082 302 135.149C311.6 118.349 319.466 103.815 319.733 102.882C320.133 101.415 306.133 101.149 242.4 101.282C199.6 101.415 162 101.949 158.8 102.615Z" fill="url(#paint1_linear_194_1474)"/>
<path d="M781.067 193.815C780.667 249.149 780.533 254.215 778.133 258.749C773.733 267.815 765.733 275.549 755.467 280.615C732.933 291.682 712.4 286.482 703.867 267.549L700.667 260.482L700.267 197.415L699.867 134.482H675.2H650.533L650.933 204.082C651.467 280.349 651.467 280.349 659.867 296.882C664.133 305.415 675.333 316.749 683.733 321.015C692.667 325.549 703.733 327.815 717.333 327.815C743.067 327.682 760.933 320.882 778.667 304.215L788.933 294.482L789.733 302.615C791.2 319.549 800.8 326.882 822 327.015C828.667 327.015 835.6 326.615 837.733 326.082L841.333 325.149V305.815C841.333 286.615 841.333 286.349 838.133 285.149C830.533 282.349 830.667 284.215 830.667 206.215V134.615L806 134.215L781.467 133.815L781.067 193.815Z" fill="#333333"/>
<path d="M862.001 134.348C861.734 134.482 865.467 140.215 870.401 147.015C899.067 186.615 927.067 225.815 927.601 227.282C927.867 228.082 912.801 250.348 894.001 276.615L859.867 324.482L886.934 324.882C909.334 325.148 914.267 324.882 915.334 323.282C916.001 322.215 925.867 307.815 937.067 291.282C948.267 274.748 957.867 261.148 958.401 261.148C958.934 261.282 967.467 273.282 977.334 288.082C987.201 302.882 996.934 317.282 999.067 320.082L1002.67 325.148H1029.47C1050.4 325.148 1056.13 324.748 1055.6 323.415C1055.33 322.615 1039.87 300.615 1021.47 274.882L987.867 227.815L991.734 222.882C993.867 220.082 1007.33 201.282 1021.73 181.148C1036 161.015 1049.33 142.482 1051.2 139.948C1053.07 137.415 1054.67 135.015 1054.67 134.615C1054.67 134.215 1042.53 133.948 1027.73 134.215L1000.67 134.615L980.001 165.282C968.801 182.215 959.067 196.215 958.534 196.482C958.134 196.882 948.534 183.015 937.201 165.815L916.667 134.615L889.601 134.215C874.667 133.948 862.267 134.082 862.001 134.348Z" fill="#333333"/>
<defs>
<linearGradient id="paint0_linear_194_1474" x1="378.125" y1="42.466" x2="-582.833" y2="42.466" gradientUnits="userSpaceOnUse">
<stop offset="0.184799" stop-color="#1B4FFF"/>
<stop offset="0.921794" stop-color="#102F99"/>
</linearGradient>
<linearGradient id="paint1_linear_194_1474" x1="319.741" y1="237.183" x2="-290.926" y2="237.183" gradientUnits="userSpaceOnUse">
<stop offset="0.184799" stop-color="#1B4FFF"/>
<stop offset="0.921794" stop-color="#102F99"/>
</linearGradient>
</defs>
</svg>
