<svg xmlns="http://www.w3.org/2000/svg" width="970" height="280" fill="none" viewBox="0 0 970 280"><path fill="url(#a)" d="M70.041.861c-23.214.5-23.614.5-29.217 3.302C33.82 7.565 26.916 14.97 21.413 24.976c-2.202 4.102-8.005 14.308-12.708 22.613C3.902 55.994 0 63.098 0 63.399c0 .3 53.031.4 117.869.3 135.379-.3 122.872.6 133.778-10.307 5.904-5.903 8.405-9.906 23.814-37.522 3.802-6.904 7.304-13.007 7.905-13.708.6-.7.5-1.4-.2-1.8-1.201-.701-174.002-.301-213.125.5"/><path fill="url(#b)" d="M119.169 77.006c-23.313 4.602-42.825 20.011-52.83 41.924-5.004 10.807-6.605 18.411-6.705 30.518-.2 18.211 2.102 24.514 20.112 56.033 2.201 3.802 7.204 12.607 11.107 19.511 7.204 12.808 29.417 51.33 31.118 54.032.8 1.301 1.1 1.301 2.301 0 2.702-2.902 25.615-43.526 27.716-49.329 2.902-8.105 2.802-16.81-.4-25.315-1.401-3.702-2.902-7.204-3.402-7.804-1.901-2.402-32.119-55.633-32.119-56.633 0-.701 12.308-1.001 37.522-1.001h37.522l6.604-2.602c10.306-4.202 14.008-8.705 28.917-34.92 7.204-12.607 13.108-23.514 13.308-24.214.3-1.1-10.206-1.301-58.034-1.2-32.119.1-60.335.5-62.737 1"/><path fill="#fff" d="M376.16 7c-17.2 4.4-29.867 14-37.467 28.4-6.266 11.733-8.933 23.6-10.133 42.933l-.8 15.333-12.933-.533-13.067-.4v38.933h26.667l.266 71.6.4 71.733h48l.4-71.733.267-71.6h45.333v-38.8l-6.266.133c-3.6.134-13.734.134-22.667.134l-16.4-.134V80.466c0-18 3.867-27.2 13.6-32.267 5.067-2.666 18-2.266 27.867.8 4.666 1.334 8.666 2.267 8.933 2 .933-.933 8-36 7.467-36.933-.4-.533-5.6-2.533-11.6-4.533-13.734-4.4-36-5.6-47.867-2.534M453.922 124.333c.4 118.133.4 119.333 3.2 125.466 7.733 16.667 23.467 25.2 46.267 25.2 16.533 0 41.6-6 43.2-10.4.8-1.866-4.134-34.533-5.334-35.733-.133-.267-3.333.4-6.933 1.467-9.733 2.933-20.8 2.666-25.2-.8-7.733-6.134-7.467-.934-7.467-117.067V5.799l-24-.4-24-.4zM695.209 140.999c-.4 55.334-.533 60.4-2.933 64.934-4.4 9.066-12.4 16.8-22.667 21.866-22.533 11.067-43.066 5.867-51.6-13.066l-3.2-7.067-.4-63.067-.4-62.933h-49.333l.4 69.6c.533 76.267.533 76.267 8.933 92.8 4.267 8.533 15.467 19.867 23.867 24.133 8.933 4.534 20 6.8 33.6 6.8 25.733-.133 43.6-6.933 61.333-23.6l10.267-9.733.8 8.133c1.467 16.934 11.067 24.267 32.267 24.4 6.666 0 13.6-.4 15.733-.933l3.6-.933v-19.334c0-19.2 0-19.466-3.2-20.666-7.6-2.8-7.467-.934-7.467-78.934v-71.6l-24.666-.4-24.534-.4zM775.609 84.2c-.266.133 3.467 5.866 8.4 12.666 28.667 39.6 56.667 78.8 57.2 80.267.267.8-14.8 23.066-33.6 49.333l-34.133 47.867 27.067.4c22.4.266 27.333 0 28.4-1.6.666-1.067 10.533-15.467 21.733-32s20.8-30.134 21.333-30.134c.534.134 9.067 12.134 18.934 26.934 9.866 14.8 19.6 29.2 21.733 32l3.6 5.066h26.8c20.933 0 26.667-.4 26.133-1.733-.266-.8-15.733-22.8-34.133-48.533l-33.6-47.067 3.867-4.933c2.133-2.8 15.6-21.6 30-41.734 14.266-20.133 27.6-38.666 29.466-41.2 1.867-2.533 3.467-4.933 3.467-5.333s-12.133-.667-26.933-.4l-27.067.4-20.667 30.667c-11.2 16.933-20.933 30.933-21.466 31.2-.4.4-10-13.467-21.334-30.667l-20.533-31.2-27.067-.4c-14.933-.267-27.333-.133-27.6.133"/><defs><linearGradient id="a" x1="283.76" x2="-437.381" y1="31.868" y2="31.868" gradientUnits="userSpaceOnUse"><stop offset=".185" stop-color="#1b4fff"/><stop offset=".922" stop-color="#102f99"/></linearGradient><linearGradient id="b" x1="239.946" x2="-218.322" y1="177.991" y2="177.991" gradientUnits="userSpaceOnUse"><stop offset=".185" stop-color="#1b4fff"/><stop offset=".922" stop-color="#102f99"/></linearGradient></defs></svg>